<?xml version="1.0" standalone="no"?>
<!DOCTYPE svg PUBLIC "-//W3C//DTD SVG 20010904//EN"
 "http://www.w3.org/TR/2001/REC-SVG-20010904/DTD/svg10.dtd">
<svg version="1.0" xmlns="http://www.w3.org/2000/svg"
 width="1677.000000pt" height="3094.000000pt" viewBox="0 0 1677.000000 3094.000000"
 preserveAspectRatio="xMidYMid meet">
<metadata>
Created by potrace 1.13, written by Peter Selinger 2001-2015
</metadata>
<g transform="translate(0.000000,3094.000000) scale(0.100000,-0.100000)"
fill="#000000" stroke="none">
<path d="M7225 8345 c-1479 -13 -2723 -24 -2763 -24 l-73 -1 -123 -187 c-205
-312 -382 -615 -520 -892 -79 -156 -208 -442 -203 -448 2 -2 1518 12 3368 32
3627 37 3406 32 3561 88 176 64 340 205 416 357 55 111 72 182 72 303 0 166
-43 303 -134 430 -118 165 -321 296 -536 344 -36 8 -135 16 -220 18 -85 2
-1365 -7 -2845 -20z"/>
</g>
</svg>
